<svg width="338" height="8628" viewBox="0 0 338 8628" fill="none" xmlns="http://www.w3.org/2000/svg">
<path fill-rule="evenodd" clip-rule="evenodd" d="M143.958 8628L137.959 8583.06C131.961 8538.12 119.965 8448.25 143.958 8358.38C167.951 8268.5 227.933 8178.62 227.933 8088.75C227.933 7998.88 167.951 7909 173.949 7819.12C179.947 7729.25 251.926 7639.38 293.914 7549.5C335.902 7459.62 347.898 7369.75 329.903 7279.88C311.909 7190 263.923 7100.12 227.933 7010.25C191.944 6920.38 167.951 6830.5 185.945 6740.62C203.94 6650.75 263.923 6560.87 293.914 6515.94L323.905 6471H0.000366211V6515.94C0.000366211 6560.87 0.000366211 6650.75 0.000366211 6740.62C0.000366211 6830.5 0.000366211 6920.38 0.000366211 7010.25C0.000366211 7100.12 0.000366211 7190 0.000366211 7279.88C0.000366211 7369.75 0.000366211 7459.62 0.000366211 7549.5C0.000366211 7639.38 0.000366211 7729.25 0.000366211 7819.12C0.000366211 7909 0.000366211 7998.88 0.000366211 8088.75C0.000366211 8178.62 0.000366211 8268.5 0.000366211 8358.38C0.000366211 8448.25 0.000366211 8538.12 0.000366211 8583.06V8628H143.958Z" fill="white"/>
<path fill-rule="evenodd" clip-rule="evenodd" d="M143.958 0L137.959 44.9375C131.961 89.875 119.965 179.75 143.958 269.625C167.951 359.5 227.933 449.375 227.933 539.25C227.933 629.125 167.951 719 173.949 808.875C179.947 898.75 251.926 988.625 293.914 1078.5C335.902 1168.38 347.898 1258.25 329.903 1348.12C311.909 1438 263.923 1527.88 227.933 1617.75C191.944 1707.62 167.951 1797.5 185.945 1887.38C203.94 1977.25 263.923 2067.13 293.914 2112.06L323.905 2157H0.000366211V2112.06C0.000366211 2067.13 0.000366211 1977.25 0.000366211 1887.38C0.000366211 1797.5 0.000366211 1707.62 0.000366211 1617.75C0.000366211 1527.88 0.000366211 1438 0.000366211 1348.12C0.000366211 1258.25 0.000366211 1168.38 0.000366211 1078.5C0.000366211 988.625 0.000366211 898.75 0.000366211 808.875C0.000366211 719 0.000366211 629.125 0.000366211 539.25C0.000366211 449.375 0.000366211 359.5 0.000366211 269.625C0.000366211 179.75 0.000366211 89.875 0.000366211 44.9375V0L143.958 0Z" fill="white"/>
<path fill-rule="evenodd" clip-rule="evenodd" d="M143.958 4314L137.959 4358.94C131.961 4403.88 119.965 4493.75 143.958 4583.62C167.951 4673.5 227.933 4763.38 227.933 4853.25C227.933 4943.12 167.951 5033 173.949 5122.88C179.947 5212.75 251.926 5302.62 293.914 5392.5C335.902 5482.38 347.898 5572.25 329.903 5662.12C311.909 5752 263.923 5841.88 227.933 5931.75C191.944 6021.62 167.951 6111.5 185.945 6201.38C203.94 6291.25 263.923 6381.13 293.914 6426.06L323.905 6471H0.000366211V6426.06C0.000366211 6381.13 0.000366211 6291.25 0.000366211 6201.38C0.000366211 6111.5 0.000366211 6021.62 0.000366211 5931.75C0.000366211 5841.88 0.000366211 5752 0.000366211 5662.12C0.000366211 5572.25 0.000366211 5482.38 0.000366211 5392.5C0.000366211 5302.62 0.000366211 5212.75 0.000366211 5122.88C0.000366211 5033 0.000366211 4943.12 0.000366211 4853.25C0.000366211 4763.38 0.000366211 4673.5 0.000366211 4583.62C0.000366211 4493.75 0.000366211 4403.88 0.000366211 4358.94V4314H143.958Z" fill="white"/>
<path fill-rule="evenodd" clip-rule="evenodd" d="M143.958 4314L137.959 4269.06C131.961 4224.12 119.965 4134.25 143.958 4044.38C167.951 3954.5 227.933 3864.62 227.933 3774.75C227.933 3684.88 167.951 3595 173.949 3505.12C179.947 3415.25 251.926 3325.38 293.914 3235.5C335.902 3145.62 347.898 3055.75 329.903 2965.88C311.909 2876 263.923 2786.12 227.933 2696.25C191.944 2606.38 167.951 2516.5 185.945 2426.62C203.94 2336.75 263.923 2246.87 293.914 2201.94L323.905 2157H0.000366211V2201.94C0.000366211 2246.87 0.000366211 2336.75 0.000366211 2426.62C0.000366211 2516.5 0.000366211 2606.38 0.000366211 2696.25C0.000366211 2786.12 0.000366211 2876 0.000366211 2965.88C0.000366211 3055.75 0.000366211 3145.62 0.000366211 3235.5C0.000366211 3325.38 0.000366211 3415.25 0.000366211 3505.12C0.000366211 3595 0.000366211 3684.88 0.000366211 3774.75C0.000366211 3864.62 0.000366211 3954.5 0.000366211 4044.38C0.000366211 4134.25 0.000366211 4224.12 0.000366211 4269.06V4314H143.958Z" fill="white"/>
</svg>
