<svg width="339" height="2157" viewBox="0 0 339 2157" fill="none" xmlns="http://www.w3.org/2000/svg">
<path fill-rule="evenodd" clip-rule="evenodd" d="M144 -4L138 42.1598C132 88.3195 120 180.639 144 272.959C168 365.278 228 457.598 228 549.917C228 642.237 168 734.556 174 826.876C180 919.195 252 1011.51 294 1103.83C336 1196.15 348 1288.47 330 1380.79C312 1473.11 264 1565.43 228 1657.75C192 1750.07 168 1842.39 186 1934.71C204 2027.03 264 2119.35 294 2165.51L324 2211.67H-0.000396729V2165.51C-0.000396729 2119.35 -0.000396729 2027.03 -0.000396729 1934.71C-0.000396729 1842.39 -0.000396729 1750.07 -0.000396729 1657.75C-0.000396729 1565.43 -0.000396729 1473.11 -0.000396729 1380.79C-0.000396729 1288.47 -0.000396729 1196.15 -0.000396729 1103.83C-0.000396729 1011.51 -0.000396729 919.195 -0.000396729 826.876C-0.000396729 734.556 -0.000396729 642.237 -0.000396729 549.917C-0.000396729 457.598 -0.000396729 365.278 -0.000396729 272.959C-0.000396729 180.639 -0.000396729 88.3195 -0.000396729 42.1598V-4L144 -4Z" fill="white"/>
</svg>
